solid OpenSCAD_Model
  facet normal -1 0 0
    outer loop
      vertex 0 0 0
      vertex 0 81 49
      vertex 0 81 0
    endloop
  endfacet
  facet normal -1 -0 0
    outer loop
      vertex 0 81 49
      vertex 0 0 0
      vertex 0 0 49
    endloop
  endfacet
  facet normal 0 0 1
    outer loop
      vertex 96 81 49
      vertex 92 77 49
      vertex 96 0 49
    endloop
  endfacet
  facet normal 0 0 1
    outer loop
      vertex 96 81 49
      vertex 4 77 49
      vertex 92 77 49
    endloop
  endfacet
  facet normal 0 0 1
    outer loop
      vertex 4 77 49
      vertex 0 81 49
      vertex 4 4 49
    endloop
  endfacet
  facet normal -0 0 1
    outer loop
      vertex 0 81 49
      vertex 4 77 49
      vertex 96 81 49
    endloop
  endfacet
  facet normal -0 0 1
    outer loop
      vertex 92 4 49
      vertex 96 0 49
      vertex 92 77 49
    endloop
  endfacet
  facet normal -0 0 1
    outer loop
      vertex 4 4 49
      vertex 96 0 49
      vertex 92 4 49
    endloop
  endfacet
  facet normal 0 0 1
    outer loop
      vertex 4 4 49
      vertex 0 0 49
      vertex 96 0 49
    endloop
  endfacet
  facet normal 0 0 1
    outer loop
      vertex 0 0 49
      vertex 4 4 49
      vertex 0 81 49
    endloop
  endfacet
  facet normal 1 0 0
    outer loop
      vertex 96 81 49
      vertex 96 77 24
      vertex 96 81 0
    endloop
  endfacet
  facet normal 1 0 0
    outer loop
      vertex 96 81 49
      vertex 96 4 24
      vertex 96 77 24
    endloop
  endfacet
  facet normal 1 0 0
    outer loop
      vertex 96 0 0
      vertex 96 4 24
      vertex 96 0 49
    endloop
  endfacet
  facet normal 1 -0 0
    outer loop
      vertex 96 0 49
      vertex 96 4 24
      vertex 96 81 49
    endloop
  endfacet
  facet normal 1 -0 0
    outer loop
      vertex 96 77 4
      vertex 96 81 0
      vertex 96 77 24
    endloop
  endfacet
  facet normal 1 -0 0
    outer loop
      vertex 96 4 4
      vertex 96 81 0
      vertex 96 77 4
    endloop
  endfacet
  facet normal 1 0 0
    outer loop
      vertex 96 4 4
      vertex 96 0 0
      vertex 96 81 0
    endloop
  endfacet
  facet normal 1 0 0
    outer loop
      vertex 96 4 24
      vertex 96 0 0
      vertex 96 4 4
    endloop
  endfacet
  facet normal 0 1 -0
    outer loop
      vertex 96 81 0
      vertex 0 81 49
      vertex 96 81 49
    endloop
  endfacet
  facet normal 0 1 0
    outer loop
      vertex 0 81 49
      vertex 96 81 0
      vertex 0 81 0
    endloop
  endfacet
  facet normal 0 0 -1
    outer loop
      vertex 0 0 0
      vertex 96 81 0
      vertex 96 0 0
    endloop
  endfacet
  facet normal -0 0 -1
    outer loop
      vertex 96 81 0
      vertex 0 0 0
      vertex 0 81 0
    endloop
  endfacet
  facet normal 0 -1 0
    outer loop
      vertex 0 0 49
      vertex 4 0 14
      vertex 96 0 49
    endloop
  endfacet
  facet normal 0 -1 0
    outer loop
      vertex 0 0 0
      vertex 4 0 14
      vertex 0 0 49
    endloop
  endfacet
  facet normal 0 -1 -0
    outer loop
      vertex 4 0 4
      vertex 0 0 0
      vertex 92 0 4
    endloop
  endfacet
  facet normal 0 -1 -0
    outer loop
      vertex 4 0 14
      vertex 0 0 0
      vertex 4 0 4
    endloop
  endfacet
  facet normal 0 -1 0
    outer loop
      vertex 92 0 14
      vertex 96 0 49
      vertex 4 0 14
    endloop
  endfacet
  facet normal 0 -1 0
    outer loop
      vertex 96 0 0
      vertex 92 0 14
      vertex 92 0 4
    endloop
  endfacet
  facet normal 0 -1 0
    outer loop
      vertex 92 0 14
      vertex 96 0 0
      vertex 96 0 49
    endloop
  endfacet
  facet normal 0 -1 0
    outer loop
      vertex 96 0 0
      vertex 92 0 4
      vertex 0 0 0
    endloop
  endfacet
  facet normal 1 0 0
    outer loop
      vertex 4 4 14
      vertex 4 77 49
      vertex 4 4 49
    endloop
  endfacet
  facet normal 1 0 0
    outer loop
      vertex 4 77 49
      vertex 4 4 14
      vertex 4 77 4
    endloop
  endfacet
  facet normal 1 0 0
    outer loop
      vertex 4 0 4
      vertex 4 4 14
      vertex 4 0 14
    endloop
  endfacet
  facet normal 1 0 0
    outer loop
      vertex 4 4 14
      vertex 4 0 4
      vertex 4 77 4
    endloop
  endfacet
  facet normal -1 0 0
    outer loop
      vertex 92 4 24
      vertex 92 77 49
      vertex 92 77 24
    endloop
  endfacet
  facet normal -1 -0 0
    outer loop
      vertex 92 77 49
      vertex 92 4 24
      vertex 92 4 49
    endloop
  endfacet
  facet normal -1 0 0
    outer loop
      vertex 92 0 4
      vertex 92 4 14
      vertex 92 4 4
    endloop
  endfacet
  facet normal -1 -0 0
    outer loop
      vertex 92 4 14
      vertex 92 0 4
      vertex 92 0 14
    endloop
  endfacet
  facet normal 0 0 1
    outer loop
      vertex 96 77 4
      vertex 92 4 4
      vertex 96 4 4
    endloop
  endfacet
  facet normal -0 0 1
    outer loop
      vertex 4 77 4
      vertex 92 4 4
      vertex 96 77 4
    endloop
  endfacet
  facet normal 0 0 1
    outer loop
      vertex 4 0 4
      vertex 92 4 4
      vertex 4 77 4
    endloop
  endfacet
  facet normal 0 0 1
    outer loop
      vertex 92 4 4
      vertex 4 0 4
      vertex 92 0 4
    endloop
  endfacet
  facet normal 0 1 0
    outer loop
      vertex 96 4 24
      vertex 92 4 14
      vertex 92 4 24
    endloop
  endfacet
  facet normal 0 1 -0
    outer loop
      vertex 96 4 4
      vertex 92 4 14
      vertex 96 4 24
    endloop
  endfacet
  facet normal 0 1 0
    outer loop
      vertex 92 4 14
      vertex 96 4 4
      vertex 92 4 4
    endloop
  endfacet
  facet normal 0 1 -0
    outer loop
      vertex 92 4 24
      vertex 4 4 49
      vertex 92 4 49
    endloop
  endfacet
  facet normal 0 1 0
    outer loop
      vertex 4 4 14
      vertex 92 4 24
      vertex 92 4 14
    endloop
  endfacet
  facet normal 0 1 0
    outer loop
      vertex 92 4 24
      vertex 4 4 14
      vertex 4 4 49
    endloop
  endfacet
  facet normal 0 -1 0
    outer loop
      vertex 4 77 49
      vertex 92 77 24
      vertex 92 77 49
    endloop
  endfacet
  facet normal 0 -1 0
    outer loop
      vertex 4 77 4
      vertex 92 77 24
      vertex 4 77 49
    endloop
  endfacet
  facet normal 0 -1 0
    outer loop
      vertex 96 77 4
      vertex 92 77 24
      vertex 4 77 4
    endloop
  endfacet
  facet normal 0 -1 0
    outer loop
      vertex 92 77 24
      vertex 96 77 4
      vertex 96 77 24
    endloop
  endfacet
  facet normal 0 0 -1
    outer loop
      vertex 4 0 14
      vertex 92 4 14
      vertex 92 0 14
    endloop
  endfacet
  facet normal -0 0 -1
    outer loop
      vertex 92 4 14
      vertex 4 0 14
      vertex 4 4 14
    endloop
  endfacet
  facet normal 0 0 -1
    outer loop
      vertex 92 4 24
      vertex 96 77 24
      vertex 96 4 24
    endloop
  endfacet
  facet normal -0 0 -1
    outer loop
      vertex 96 77 24
      vertex 92 4 24
      vertex 92 77 24
    endloop
  endfacet
  facet normal -1 0 0
    outer loop
      vertex -108 -4 0
      vertex -108 85 8
      vertex -108 85 0
    endloop
  endfacet
  facet normal -1 -0 0
    outer loop
      vertex -108 85 8
      vertex -108 -4 0
      vertex -108 -4 8
    endloop
  endfacet
  facet normal 0 0 1
    outer loop
      vertex -4 85 8
      vertex -8 81 8
      vertex -4 -4 8
    endloop
  endfacet
  facet normal 0 0 1
    outer loop
      vertex -4 85 8
      vertex -104 81 8
      vertex -8 81 8
    endloop
  endfacet
  facet normal 0 0 1
    outer loop
      vertex -104 81 8
      vertex -108 85 8
      vertex -104 0 8
    endloop
  endfacet
  facet normal -0 0 1
    outer loop
      vertex -108 85 8
      vertex -104 81 8
      vertex -4 85 8
    endloop
  endfacet
  facet normal -0 0 1
    outer loop
      vertex -8 0 8
      vertex -4 -4 8
      vertex -8 81 8
    endloop
  endfacet
  facet normal -0 0 1
    outer loop
      vertex -104 0 8
      vertex -4 -4 8
      vertex -8 0 8
    endloop
  endfacet
  facet normal 0 0 1
    outer loop
      vertex -104 0 8
      vertex -108 -4 8
      vertex -4 -4 8
    endloop
  endfacet
  facet normal 0 0 1
    outer loop
      vertex -108 -4 8
      vertex -104 0 8
      vertex -108 85 8
    endloop
  endfacet
  facet normal 1 -0 0
    outer loop
      vertex -4 -4 8
      vertex -4 85 0
      vertex -4 85 8
    endloop
  endfacet
  facet normal 1 0 0
    outer loop
      vertex -4 85 0
      vertex -4 -4 8
      vertex -4 -4 0
    endloop
  endfacet
  facet normal 0 0 -1
    outer loop
      vertex -36 70 0
      vertex -4 -4 0
      vertex -36 10 0
    endloop
  endfacet
  facet normal 0 0 -1
    outer loop
      vertex -108 -4 0
      vertex -36 10 0
      vertex -4 -4 0
    endloop
  endfacet
  facet normal -0 0 -1
    outer loop
      vertex -96 10 0
      vertex -108 -4 0
      vertex -96 70 0
    endloop
  endfacet
  facet normal -0 0 -1
    outer loop
      vertex -36 10 0
      vertex -108 -4 0
      vertex -96 10 0
    endloop
  endfacet
  facet normal 0 0 -1
    outer loop
      vertex -4 -4 0
      vertex -36 70 0
      vertex -4 85 0
    endloop
  endfacet
  facet normal 0 0 -1
    outer loop
      vertex -108 85 0
      vertex -36 70 0
      vertex -96 70 0
    endloop
  endfacet
  facet normal 0 0 -1
    outer loop
      vertex -36 70 0
      vertex -108 85 0
      vertex -4 85 0
    endloop
  endfacet
  facet normal 0 0 -1
    outer loop
      vertex -108 85 0
      vertex -96 70 0
      vertex -108 -4 0
    endloop
  endfacet
  facet normal 0 -1 0
    outer loop
      vertex -108 -4 0
      vertex -4 -4 8
      vertex -108 -4 8
    endloop
  endfacet
  facet normal 0 -1 -0
    outer loop
      vertex -4 -4 8
      vertex -108 -4 0
      vertex -4 -4 0
    endloop
  endfacet
  facet normal 0 1 -0
    outer loop
      vertex -4 85 0
      vertex -108 85 8
      vertex -4 85 8
    endloop
  endfacet
  facet normal 0 1 0
    outer loop
      vertex -108 85 8
      vertex -4 85 0
      vertex -108 85 0
    endloop
  endfacet
  facet normal 1 -0 0
    outer loop
      vertex -104 0 8
      vertex -104 81 2
      vertex -104 81 8
    endloop
  endfacet
  facet normal 1 0 0
    outer loop
      vertex -104 81 2
      vertex -104 0 8
      vertex -104 0 2
    endloop
  endfacet
  facet normal -1 0 0
    outer loop
      vertex -8 0 2
      vertex -8 81 8
      vertex -8 81 2
    endloop
  endfacet
  facet normal -1 -0 0
    outer loop
      vertex -8 81 8
      vertex -8 0 2
      vertex -8 0 8
    endloop
  endfacet
  facet normal 0 0 1
    outer loop
      vertex -8 81 2
      vertex -36 70 2
      vertex -8 0 2
    endloop
  endfacet
  facet normal -0 0 1
    outer loop
      vertex -104 81 2
      vertex -36 70 2
      vertex -8 81 2
    endloop
  endfacet
  facet normal 0 0 1
    outer loop
      vertex -104 0 2
      vertex -96 70 2
      vertex -104 81 2
    endloop
  endfacet
  facet normal 0 0 1
    outer loop
      vertex -36 70 2
      vertex -104 81 2
      vertex -96 70 2
    endloop
  endfacet
  facet normal -0 0 1
    outer loop
      vertex -36 10 2
      vertex -8 0 2
      vertex -36 70 2
    endloop
  endfacet
  facet normal 0 0 1
    outer loop
      vertex -104 0 2
      vertex -36 10 2
      vertex -96 10 2
    endloop
  endfacet
  facet normal 0 0 1
    outer loop
      vertex -36 10 2
      vertex -104 0 2
      vertex -8 0 2
    endloop
  endfacet
  facet normal 0 0 1
    outer loop
      vertex -96 70 2
      vertex -104 0 2
      vertex -96 10 2
    endloop
  endfacet
  facet normal 0 1 -0
    outer loop
      vertex -8 0 2
      vertex -104 0 8
      vertex -8 0 8
    endloop
  endfacet
  facet normal 0 1 0
    outer loop
      vertex -104 0 8
      vertex -8 0 2
      vertex -104 0 2
    endloop
  endfacet
  facet normal 0 -1 0
    outer loop
      vertex -104 81 2
      vertex -8 81 8
      vertex -104 81 8
    endloop
  endfacet
  facet normal 0 -1 -0
    outer loop
      vertex -8 81 8
      vertex -104 81 2
      vertex -8 81 2
    endloop
  endfacet
  facet normal 1 -0 0
    outer loop
      vertex -96 10 2
      vertex -96 70 0
      vertex -96 70 2
    endloop
  endfacet
  facet normal 1 0 0
    outer loop
      vertex -96 70 0
      vertex -96 10 2
      vertex -96 10 0
    endloop
  endfacet
  facet normal -1 0 0
    outer loop
      vertex -36 10 0
      vertex -36 70 2
      vertex -36 70 0
    endloop
  endfacet
  facet normal -1 -0 0
    outer loop
      vertex -36 70 2
      vertex -36 10 0
      vertex -36 10 2
    endloop
  endfacet
  facet normal 0 -1 0
    outer loop
      vertex -96 70 0
      vertex -36 70 2
      vertex -96 70 2
    endloop
  endfacet
  facet normal 0 -1 -0
    outer loop
      vertex -36 70 2
      vertex -96 70 0
      vertex -36 70 0
    endloop
  endfacet
  facet normal 0 1 -0
    outer loop
      vertex -36 10 0
      vertex -96 10 2
      vertex -36 10 2
    endloop
  endfacet
  facet normal 0 1 0
    outer loop
      vertex -96 10 2
      vertex -36 10 0
      vertex -96 10 0
    endloop
  endfacet
  facet normal -1 0 0
    outer loop
      vertex 19.5 -67 60
      vertex 19.5 -43 83
      vertex 19.5 -43 60
    endloop
  endfacet
  facet normal -1 -0 0
    outer loop
      vertex 19.5 -43 83
      vertex 19.5 -67 60
      vertex 19.5 -67 83
    endloop
  endfacet
  facet normal 0 0 1
    outer loop
      vertex 80.5 -43 83
      vertex 78.5 -45 83
      vertex 80.5 -67 83
    endloop
  endfacet
  facet normal 0 0 1
    outer loop
      vertex 80.5 -43 83
      vertex 21.5 -45 83
      vertex 78.5 -45 83
    endloop
  endfacet
  facet normal 0 0 1
    outer loop
      vertex 21.5 -45 83
      vertex 19.5 -43 83
      vertex 21.5 -65 83
    endloop
  endfacet
  facet normal -0 0 1
    outer loop
      vertex 19.5 -43 83
      vertex 21.5 -45 83
      vertex 80.5 -43 83
    endloop
  endfacet
  facet normal -0 0 1
    outer loop
      vertex 78.5 -65 83
      vertex 80.5 -67 83
      vertex 78.5 -45 83
    endloop
  endfacet
  facet normal -0 0 1
    outer loop
      vertex 21.5 -65 83
      vertex 80.5 -67 83
      vertex 78.5 -65 83
    endloop
  endfacet
  facet normal 0 0 1
    outer loop
      vertex 21.5 -65 83
      vertex 19.5 -67 83
      vertex 80.5 -67 83
    endloop
  endfacet
  facet normal 0 0 1
    outer loop
      vertex 19.5 -67 83
      vertex 21.5 -65 83
      vertex 19.5 -43 83
    endloop
  endfacet
  facet normal 1 -0 0
    outer loop
      vertex 80.5 -67 83
      vertex 80.5 -43 60
      vertex 80.5 -43 83
    endloop
  endfacet
  facet normal 1 0 0
    outer loop
      vertex 80.5 -43 60
      vertex 80.5 -67 83
      vertex 80.5 -67 60
    endloop
  endfacet
  facet normal 0 1 -0
    outer loop
      vertex 80.5 -43 60
      vertex 19.5 -43 83
      vertex 80.5 -43 83
    endloop
  endfacet
  facet normal 0 1 0
    outer loop
      vertex 19.5 -43 83
      vertex 80.5 -43 60
      vertex 19.5 -43 60
    endloop
  endfacet
  facet normal 0 -1 0
    outer loop
      vertex 19.5 -67 60
      vertex 80.5 -67 83
      vertex 19.5 -67 83
    endloop
  endfacet
  facet normal 0 -1 -0
    outer loop
      vertex 80.5 -67 83
      vertex 19.5 -67 60
      vertex 80.5 -67 60
    endloop
  endfacet
  facet normal 1 -0 0
    outer loop
      vertex 21.5 -65 83
      vertex 21.5 -45 60
      vertex 21.5 -45 83
    endloop
  endfacet
  facet normal 1 0 0
    outer loop
      vertex 21.5 -45 60
      vertex 21.5 -65 83
      vertex 21.5 -65 60
    endloop
  endfacet
  facet normal -1 0 0
    outer loop
      vertex 78.5 -65 60
      vertex 78.5 -45 83
      vertex 78.5 -45 60
    endloop
  endfacet
  facet normal -1 -0 0
    outer loop
      vertex 78.5 -45 83
      vertex 78.5 -65 60
      vertex 78.5 -65 83
    endloop
  endfacet
  facet normal 0 -1 0
    outer loop
      vertex 21.5 -45 60
      vertex 78.5 -45 83
      vertex 21.5 -45 83
    endloop
  endfacet
  facet normal 0 -1 -0
    outer loop
      vertex 78.5 -45 83
      vertex 21.5 -45 60
      vertex 78.5 -45 60
    endloop
  endfacet
  facet normal 0 1 -0
    outer loop
      vertex 78.5 -65 60
      vertex 21.5 -65 83
      vertex 78.5 -65 83
    endloop
  endfacet
  facet normal 0 1 0
    outer loop
      vertex 21.5 -65 83
      vertex 78.5 -65 60
      vertex 21.5 -65 60
    endloop
  endfacet
  facet normal 0.981135 0.103122 0.163523
    outer loop
      vertex 98.9074 -44.6044 0
      vertex 90 -55 60
      vertex 100 -55 0
    endloop
  endfacet
  facet normal 0.938255 0.304857 0.163523
    outer loop
      vertex 95.6773 -34.6632 0
      vertex 89.1259 -46.6835 60
      vertex 98.9074 -44.6044 0
    endloop
  endfacet
  facet normal 0.401262 0.901249 0.163523
    outer loop
      vertex 65.4509 -7.44717 0
      vertex 62.3607 -16.9577 60
      vertex 70 -20.359 60
    endloop
  endfacet
  facet normal 0.854369 -0.493269 0.163523
    outer loop
      vertex 86.5418 -71.2695 60
      vertex 82.3607 -78.5114 60
      vertex 95.6773 -75.3368 0
    endloop
  endfacet
  facet normal -0.854368 0.49327 0.163523
    outer loop
      vertex 9.54915 -25.6107 0
      vertex 4.32273 -34.6632 0
      vertex 17.6393 -31.4886 60
    endloop
  endfacet
  facet normal -0.579873 0.798127 0.163523
    outer loop
      vertex 25 -11.6987 0
      vertex 16.5435 -17.8428 0
      vertex 30 -20.359 60
    endloop
  endfacet
  facet normal -0.854368 0.49327 0.163523
    outer loop
      vertex 17.6393 -31.4886 60
      vertex 4.32273 -34.6632 0
      vertex 13.4582 -38.7305 60
    endloop
  endfacet
  facet normal -0.981135 -0.103121 0.163523
    outer loop
      vertex 10.8741 -63.3165 60
      vertex 0 -55 0
      vertex 1.09262 -65.3956 0
    endloop
  endfacet
  facet normal 0.579874 -0.798127 0.163523
    outer loop
      vertex 76.7652 -84.7258 60
      vertex 70 -89.641 60
      vertex 83.4565 -92.1572 0
    endloop
  endfacet
  facet normal -0.205113 0.964981 0.163523
    outer loop
      vertex 44.7736 -5.2739 0
      vertex 37.6393 -16.9577 60
      vertex 45.8189 -15.2191 60
    endloop
  endfacet
  facet normal 0.401262 0.901249 0.163523
    outer loop
      vertex 75 -11.6987 0
      vertex 65.4509 -7.44717 0
      vertex 70 -20.359 60
    endloop
  endfacet
  facet normal 0.854368 0.49327 0.163523
    outer loop
      vertex 90.4509 -25.6107 0
      vertex 82.3607 -31.4886 60
      vertex 95.6773 -34.6632 0
    endloop
  endfacet
  facet normal 0.854368 0.49327 0.163523
    outer loop
      vertex 95.6773 -34.6632 0
      vertex 82.3607 -31.4886 60
      vertex 86.5418 -38.7305 60
    endloop
  endfacet
  facet normal 0.981135 -0.103122 0.163523
    outer loop
      vertex 100 -55 0
      vertex 90 -55 60
      vertex 98.9074 -65.3956 0
    endloop
  endfacet
  facet normal -0.938255 0.304857 0.163523
    outer loop
      vertex 4.32273 -34.6632 0
      vertex 1.09262 -44.6044 0
      vertex 10.8741 -46.6835 60
    endloop
  endfacet
  facet normal -0.733142 0.660124 0.163523
    outer loop
      vertex 16.5435 -17.8428 0
      vertex 9.54915 -25.6107 0
      vertex 17.6393 -31.4886 60
    endloop
  endfacet
  facet normal 0 0 1
    outer loop
      vertex 80.5 -43 60
      vertex 90 -55 60
      vertex 89.1259 -46.6835 60
    endloop
  endfacet
  facet normal -0 0 1
    outer loop
      vertex 80.5 -43 60
      vertex 89.1259 -46.6835 60
      vertex 86.5418 -38.7305 60
    endloop
  endfacet
  facet normal 0 0 1
    outer loop
      vertex 80.5 -67 60
      vertex 90 -55 60
      vertex 80.5 -43 60
    endloop
  endfacet
  facet normal 0 0 1
    outer loop
      vertex 80.5 -43 60
      vertex 86.5418 -38.7305 60
      vertex 82.3607 -31.4886 60
    endloop
  endfacet
  facet normal 0 0 1
    outer loop
      vertex 90 -55 60
      vertex 80.5 -67 60
      vertex 89.1259 -63.3165 60
    endloop
  endfacet
  facet normal 0 0 1
    outer loop
      vertex 89.1259 -63.3165 60
      vertex 80.5 -67 60
      vertex 86.5418 -71.2695 60
    endloop
  endfacet
  facet normal 0 0 1
    outer loop
      vertex 76.7652 -25.2742 60
      vertex 80.5 -43 60
      vertex 82.3607 -31.4886 60
    endloop
  endfacet
  facet normal 0 0 1
    outer loop
      vertex 70 -20.359 60
      vertex 80.5 -43 60
      vertex 76.7652 -25.2742 60
    endloop
  endfacet
  facet normal 0 0 1
    outer loop
      vertex 62.3607 -16.9577 60
      vertex 80.5 -43 60
      vertex 70 -20.359 60
    endloop
  endfacet
  facet normal 0 0 1
    outer loop
      vertex 54.1811 -15.2191 60
      vertex 80.5 -43 60
      vertex 62.3607 -16.9577 60
    endloop
  endfacet
  facet normal -0 0 1
    outer loop
      vertex 45.8189 -15.2191 60
      vertex 80.5 -43 60
      vertex 54.1811 -15.2191 60
    endloop
  endfacet
  facet normal 0 0 1
    outer loop
      vertex 19.5 -43 60
      vertex 45.8189 -15.2191 60
      vertex 37.6393 -16.9577 60
    endloop
  endfacet
  facet normal 0 0 1
    outer loop
      vertex 19.5 -43 60
      vertex 37.6393 -16.9577 60
      vertex 30 -20.359 60
    endloop
  endfacet
  facet normal 0 0 1
    outer loop
      vertex 19.5 -43 60
      vertex 30 -20.359 60
      vertex 23.2348 -25.2742 60
    endloop
  endfacet
  facet normal 0 0 1
    outer loop
      vertex 45.8189 -15.2191 60
      vertex 19.5 -43 60
      vertex 80.5 -43 60
    endloop
  endfacet
  facet normal -0 0 1
    outer loop
      vertex 13.4582 -38.7305 60
      vertex 19.5 -43 60
      vertex 17.6393 -31.4886 60
    endloop
  endfacet
  facet normal -0 0 1
    outer loop
      vertex 17.6393 -31.4886 60
      vertex 19.5 -43 60
      vertex 23.2348 -25.2742 60
    endloop
  endfacet
  facet normal 0 0 1
    outer loop
      vertex 86.5418 -71.2695 60
      vertex 80.5 -67 60
      vertex 82.3607 -78.5114 60
    endloop
  endfacet
  facet normal 0 0 1
    outer loop
      vertex 80.5 -67 60
      vertex 76.7652 -84.7258 60
      vertex 82.3607 -78.5114 60
    endloop
  endfacet
  facet normal 0 0 1
    outer loop
      vertex 80.5 -67 60
      vertex 70 -89.641 60
      vertex 76.7652 -84.7258 60
    endloop
  endfacet
  facet normal 0 0 1
    outer loop
      vertex 80.5 -67 60
      vertex 62.3607 -93.0423 60
      vertex 70 -89.641 60
    endloop
  endfacet
  facet normal 0 0 1
    outer loop
      vertex 80.5 -67 60
      vertex 54.1811 -94.7809 60
      vertex 62.3607 -93.0423 60
    endloop
  endfacet
  facet normal 0 0 1
    outer loop
      vertex 80.5 -67 60
      vertex 45.8189 -94.7809 60
      vertex 54.1811 -94.7809 60
    endloop
  endfacet
  facet normal -0 0 1
    outer loop
      vertex 19.5 -67 60
      vertex 45.8189 -94.7809 60
      vertex 80.5 -67 60
    endloop
  endfacet
  facet normal 0 0 1
    outer loop
      vertex 45.8189 -94.7809 60
      vertex 19.5 -67 60
      vertex 37.6393 -93.0423 60
    endloop
  endfacet
  facet normal 0 0 1
    outer loop
      vertex 37.6393 -93.0423 60
      vertex 19.5 -67 60
      vertex 30 -89.641 60
    endloop
  endfacet
  facet normal 0 0 1
    outer loop
      vertex 30 -89.641 60
      vertex 19.5 -67 60
      vertex 23.2348 -84.7258 60
    endloop
  endfacet
  facet normal 0 0 1
    outer loop
      vertex 19.5 -67 60
      vertex 17.6393 -78.5114 60
      vertex 23.2348 -84.7258 60
    endloop
  endfacet
  facet normal 0 0 1
    outer loop
      vertex 10.8741 -46.6835 60
      vertex 19.5 -43 60
      vertex 13.4582 -38.7305 60
    endloop
  endfacet
  facet normal 0 0 1
    outer loop
      vertex 10 -55 60
      vertex 19.5 -43 60
      vertex 10.8741 -46.6835 60
    endloop
  endfacet
  facet normal 0 0 1
    outer loop
      vertex 19.5 -67 60
      vertex 13.4582 -71.2695 60
      vertex 17.6393 -78.5114 60
    endloop
  endfacet
  facet normal 0 0 1
    outer loop
      vertex 19.5 -43 60
      vertex 10 -55 60
      vertex 19.5 -67 60
    endloop
  endfacet
  facet normal 0 0 1
    outer loop
      vertex 19.5 -67 60
      vertex 10.8741 -63.3165 60
      vertex 13.4582 -71.2695 60
    endloop
  endfacet
  facet normal 0 0 1
    outer loop
      vertex 19.5 -67 60
      vertex 10 -55 60
      vertex 10.8741 -63.3165 60
    endloop
  endfacet
  facet normal -0 0 1
    outer loop
      vertex 21.5 -45 60
      vertex 78.5 -65 60
      vertex 78.5 -45 60
    endloop
  endfacet
  facet normal 0 0 1
    outer loop
      vertex 78.5 -65 60
      vertex 21.5 -45 60
      vertex 21.5 -65 60
    endloop
  endfacet
  facet normal -0.981135 0.103121 0.163523
    outer loop
      vertex 0 -55 0
      vertex 10.8741 -46.6835 60
      vertex 1.09262 -44.6044 0
    endloop
  endfacet
  facet normal -0.981135 0.103121 0.163523
    outer loop
      vertex 10.8741 -46.6835 60
      vertex 0 -55 0
      vertex 10 -55 60
    endloop
  endfacet
  facet normal 0 0 -1
    outer loop
      vertex 98.9074 -65.3956 0
      vertex 98.9074 -44.6044 0
      vertex 100 -55 0
    endloop
  endfacet
  facet normal 0 0 -1
    outer loop
      vertex 95.6773 -75.3368 0
      vertex 98.9074 -44.6044 0
      vertex 98.9074 -65.3956 0
    endloop
  endfacet
  facet normal 0 0 -1
    outer loop
      vertex 95.6773 -75.3368 0
      vertex 95.6773 -34.6632 0
      vertex 98.9074 -44.6044 0
    endloop
  endfacet
  facet normal 0 0 -1
    outer loop
      vertex 90.4509 -84.3893 0
      vertex 95.6773 -34.6632 0
      vertex 95.6773 -75.3368 0
    endloop
  endfacet
  facet normal 0 0 -1
    outer loop
      vertex 90.4509 -84.3893 0
      vertex 90.4509 -25.6107 0
      vertex 95.6773 -34.6632 0
    endloop
  endfacet
  facet normal 0 0 -1
    outer loop
      vertex 83.4565 -92.1572 0
      vertex 90.4509 -25.6107 0
      vertex 90.4509 -84.3893 0
    endloop
  endfacet
  facet normal 0 0 -1
    outer loop
      vertex 83.4565 -92.1572 0
      vertex 83.4565 -17.8428 0
      vertex 90.4509 -25.6107 0
    endloop
  endfacet
  facet normal 0 0 -1
    outer loop
      vertex 75 -98.3013 0
      vertex 83.4565 -17.8428 0
      vertex 83.4565 -92.1572 0
    endloop
  endfacet
  facet normal 0 0 -1
    outer loop
      vertex 75 -98.3013 0
      vertex 75 -11.6987 0
      vertex 83.4565 -17.8428 0
    endloop
  endfacet
  facet normal 0 0 -1
    outer loop
      vertex 65.4509 -102.553 0
      vertex 75 -11.6987 0
      vertex 75 -98.3013 0
    endloop
  endfacet
  facet normal 0 0 -1
    outer loop
      vertex 65.4509 -102.553 0
      vertex 65.4509 -7.44717 0
      vertex 75 -11.6987 0
    endloop
  endfacet
  facet normal 0 0 -1
    outer loop
      vertex 55.2264 -104.726 0
      vertex 65.4509 -7.44717 0
      vertex 65.4509 -102.553 0
    endloop
  endfacet
  facet normal 0 0 -1
    outer loop
      vertex 55.2264 -104.726 0
      vertex 55.2264 -5.2739 0
      vertex 65.4509 -7.44717 0
    endloop
  endfacet
  facet normal 0 0 -1
    outer loop
      vertex 44.7736 -104.726 0
      vertex 55.2264 -5.2739 0
      vertex 55.2264 -104.726 0
    endloop
  endfacet
  facet normal 0 0 -1
    outer loop
      vertex 44.7736 -104.726 0
      vertex 44.7736 -5.2739 0
      vertex 55.2264 -5.2739 0
    endloop
  endfacet
  facet normal 0 0 -1
    outer loop
      vertex 34.5491 -102.553 0
      vertex 44.7736 -5.2739 0
      vertex 44.7736 -104.726 0
    endloop
  endfacet
  facet normal 0 0 -1
    outer loop
      vertex 34.5491 -102.553 0
      vertex 34.5491 -7.44717 0
      vertex 44.7736 -5.2739 0
    endloop
  endfacet
  facet normal 0 0 -1
    outer loop
      vertex 25 -98.3013 0
      vertex 34.5491 -7.44717 0
      vertex 34.5491 -102.553 0
    endloop
  endfacet
  facet normal 0 0 -1
    outer loop
      vertex 25 -98.3013 0
      vertex 25 -11.6987 0
      vertex 34.5491 -7.44717 0
    endloop
  endfacet
  facet normal 0 0 -1
    outer loop
      vertex 16.5435 -92.1572 0
      vertex 25 -11.6987 0
      vertex 25 -98.3013 0
    endloop
  endfacet
  facet normal 0 0 -1
    outer loop
      vertex 16.5435 -92.1572 0
      vertex 16.5435 -17.8428 0
      vertex 25 -11.6987 0
    endloop
  endfacet
  facet normal 0 0 -1
    outer loop
      vertex 9.54915 -84.3893 0
      vertex 16.5435 -17.8428 0
      vertex 16.5435 -92.1572 0
    endloop
  endfacet
  facet normal 0 0 -1
    outer loop
      vertex 9.54915 -84.3893 0
      vertex 9.54915 -25.6107 0
      vertex 16.5435 -17.8428 0
    endloop
  endfacet
  facet normal 0 0 -1
    outer loop
      vertex 4.32273 -75.3368 0
      vertex 9.54915 -25.6107 0
      vertex 9.54915 -84.3893 0
    endloop
  endfacet
  facet normal 0 0 -1
    outer loop
      vertex 4.32273 -75.3368 0
      vertex 4.32273 -34.6632 0
      vertex 9.54915 -25.6107 0
    endloop
  endfacet
  facet normal 0 0 -1
    outer loop
      vertex 1.09262 -65.3956 0
      vertex 4.32273 -34.6632 0
      vertex 4.32273 -75.3368 0
    endloop
  endfacet
  facet normal 0 0 -1
    outer loop
      vertex 1.09262 -65.3956 0
      vertex 1.09262 -44.6044 0
      vertex 4.32273 -34.6632 0
    endloop
  endfacet
  facet normal 0 -0 -1
    outer loop
      vertex 1.09262 -44.6044 0
      vertex 1.09262 -65.3956 0
      vertex 0 -55 0
    endloop
  endfacet
  facet normal -0.401262 -0.901249 0.163523
    outer loop
      vertex 30 -89.641 60
      vertex 25 -98.3013 0
      vertex 34.5491 -102.553 0
    endloop
  endfacet
  facet normal 0 -0.98654 0.163523
    outer loop
      vertex 44.7736 -104.726 0
      vertex 54.1811 -94.7809 60
      vertex 45.8189 -94.7809 60
    endloop
  endfacet
  facet normal 0 -0.98654 0.163523
    outer loop
      vertex 54.1811 -94.7809 60
      vertex 44.7736 -104.726 0
      vertex 55.2264 -104.726 0
    endloop
  endfacet
  facet normal 0.733142 -0.660124 0.163522
    outer loop
      vertex 90.4509 -84.3893 0
      vertex 82.3607 -78.5114 60
      vertex 83.4565 -92.1572 0
    endloop
  endfacet
  facet normal 0.401262 -0.901249 0.163523
    outer loop
      vertex 70 -89.641 60
      vertex 65.4509 -102.553 0
      vertex 75 -98.3013 0
    endloop
  endfacet
  facet normal 0.854368 -0.49327 0.163523
    outer loop
      vertex 95.6773 -75.3368 0
      vertex 82.3607 -78.5114 60
      vertex 90.4509 -84.3893 0
    endloop
  endfacet
  facet normal 0.205113 0.964981 0.163523
    outer loop
      vertex 65.4509 -7.44717 0
      vertex 55.2264 -5.2739 0
      vertex 62.3607 -16.9577 60
    endloop
  endfacet
  facet normal -0.205113 0.964981 0.163523
    outer loop
      vertex 44.7736 -5.2739 0
      vertex 34.5491 -7.44717 0
      vertex 37.6393 -16.9577 60
    endloop
  endfacet
  facet normal 0.205113 0.964981 0.163523
    outer loop
      vertex 55.2264 -5.2739 0
      vertex 54.1811 -15.2191 60
      vertex 62.3607 -16.9577 60
    endloop
  endfacet
  facet normal 0.733142 0.660124 0.163523
    outer loop
      vertex 83.4565 -17.8428 0
      vertex 82.3607 -31.4886 60
      vertex 90.4509 -25.6107 0
    endloop
  endfacet
  facet normal 0.579874 0.798127 0.163523
    outer loop
      vertex 83.4565 -17.8428 0
      vertex 70 -20.359 60
      vertex 76.7652 -25.2742 60
    endloop
  endfacet
  facet normal 0.579874 0.798127 0.163523
    outer loop
      vertex 75 -11.6987 0
      vertex 70 -20.359 60
      vertex 83.4565 -17.8428 0
    endloop
  endfacet
  facet normal 0.733142 0.660124 0.163523
    outer loop
      vertex 83.4565 -17.8428 0
      vertex 76.7652 -25.2742 60
      vertex 82.3607 -31.4886 60
    endloop
  endfacet
  facet normal -0.579873 0.798127 0.163523
    outer loop
      vertex 30 -20.359 60
      vertex 16.5435 -17.8428 0
      vertex 23.2348 -25.2742 60
    endloop
  endfacet
  facet normal -0.733142 0.660124 0.163523
    outer loop
      vertex 23.2348 -25.2742 60
      vertex 16.5435 -17.8428 0
      vertex 17.6393 -31.4886 60
    endloop
  endfacet
  facet normal -0.733142 -0.660124 0.163522
    outer loop
      vertex 17.6393 -78.5114 60
      vertex 9.54915 -84.3893 0
      vertex 16.5435 -92.1572 0
    endloop
  endfacet
  facet normal -0.854368 -0.49327 0.163522
    outer loop
      vertex 17.6393 -78.5114 60
      vertex 4.32273 -75.3368 0
      vertex 9.54915 -84.3893 0
    endloop
  endfacet
  facet normal -0.854369 -0.49327 0.163523
    outer loop
      vertex 13.4582 -71.2695 60
      vertex 4.32273 -75.3368 0
      vertex 17.6393 -78.5114 60
    endloop
  endfacet
  facet normal -0.938255 0.304857 0.163523
    outer loop
      vertex 13.4582 -38.7305 60
      vertex 4.32273 -34.6632 0
      vertex 10.8741 -46.6835 60
    endloop
  endfacet
  facet normal -0.981135 -0.103121 0.163523
    outer loop
      vertex 10 -55 60
      vertex 0 -55 0
      vertex 10.8741 -63.3165 60
    endloop
  endfacet
  facet normal -0.401262 -0.901249 0.163523
    outer loop
      vertex 37.6393 -93.0423 60
      vertex 30 -89.641 60
      vertex 34.5491 -102.553 0
    endloop
  endfacet
  facet normal -0.205113 -0.964981 0.163523
    outer loop
      vertex 37.6393 -93.0423 60
      vertex 34.5491 -102.553 0
      vertex 44.7736 -104.726 0
    endloop
  endfacet
  facet normal 0.205113 -0.964981 0.163523
    outer loop
      vertex 62.3607 -93.0423 60
      vertex 54.1811 -94.7809 60
      vertex 55.2264 -104.726 0
    endloop
  endfacet
  facet normal 0.579873 -0.798127 0.163523
    outer loop
      vertex 83.4565 -92.1572 0
      vertex 70 -89.641 60
      vertex 75 -98.3013 0
    endloop
  endfacet
  facet normal 0.938255 -0.304857 0.163523
    outer loop
      vertex 89.1259 -63.3165 60
      vertex 86.5418 -71.2695 60
      vertex 95.6773 -75.3368 0
    endloop
  endfacet
  facet normal 0 0.98654 0.163523
    outer loop
      vertex 55.2264 -5.2739 0
      vertex 45.8189 -15.2191 60
      vertex 54.1811 -15.2191 60
    endloop
  endfacet
  facet normal 0 0.98654 0.163523
    outer loop
      vertex 45.8189 -15.2191 60
      vertex 55.2264 -5.2739 0
      vertex 44.7736 -5.2739 0
    endloop
  endfacet
  facet normal 0.938255 0.304857 0.163523
    outer loop
      vertex 95.6773 -34.6632 0
      vertex 86.5418 -38.7305 60
      vertex 89.1259 -46.6835 60
    endloop
  endfacet
  facet normal -0.401262 0.901249 0.163523
    outer loop
      vertex 34.5491 -7.44717 0
      vertex 30 -20.359 60
      vertex 37.6393 -16.9577 60
    endloop
  endfacet
  facet normal -0.401262 0.901249 0.163523
    outer loop
      vertex 34.5491 -7.44717 0
      vertex 25 -11.6987 0
      vertex 30 -20.359 60
    endloop
  endfacet
  facet normal -0.579873 -0.798127 0.163523
    outer loop
      vertex 30 -89.641 60
      vertex 16.5435 -92.1572 0
      vertex 25 -98.3013 0
    endloop
  endfacet
  facet normal -0.938255 -0.304858 0.163523
    outer loop
      vertex 10.8741 -63.3165 60
      vertex 4.32273 -75.3368 0
      vertex 13.4582 -71.2695 60
    endloop
  endfacet
  facet normal -0.938255 -0.304857 0.163523
    outer loop
      vertex 10.8741 -63.3165 60
      vertex 1.09262 -65.3956 0
      vertex 4.32273 -75.3368 0
    endloop
  endfacet
  facet normal -0.205113 -0.964981 0.163523
    outer loop
      vertex 45.8189 -94.7809 60
      vertex 37.6393 -93.0423 60
      vertex 44.7736 -104.726 0
    endloop
  endfacet
  facet normal 0.401262 -0.901249 0.163523
    outer loop
      vertex 70 -89.641 60
      vertex 62.3607 -93.0423 60
      vertex 65.4509 -102.553 0
    endloop
  endfacet
  facet normal 0.205113 -0.964981 0.163523
    outer loop
      vertex 62.3607 -93.0423 60
      vertex 55.2264 -104.726 0
      vertex 65.4509 -102.553 0
    endloop
  endfacet
  facet normal 0.733141 -0.660124 0.163523
    outer loop
      vertex 82.3607 -78.5114 60
      vertex 76.7652 -84.7258 60
      vertex 83.4565 -92.1572 0
    endloop
  endfacet
  facet normal 0.938255 -0.304857 0.163523
    outer loop
      vertex 98.9074 -65.3956 0
      vertex 89.1259 -63.3165 60
      vertex 95.6773 -75.3368 0
    endloop
  endfacet
  facet normal 0.981135 -0.103122 0.163523
    outer loop
      vertex 90 -55 60
      vertex 89.1259 -63.3165 60
      vertex 98.9074 -65.3956 0
    endloop
  endfacet
  facet normal 0.981135 0.103122 0.163523
    outer loop
      vertex 98.9074 -44.6044 0
      vertex 89.1259 -46.6835 60
      vertex 90 -55 60
    endloop
  endfacet
  facet normal -0.733142 -0.660124 0.163523
    outer loop
      vertex 17.6393 -78.5114 60
      vertex 16.5435 -92.1572 0
      vertex 23.2348 -84.7258 60
    endloop
  endfacet
  facet normal -0.579873 -0.798127 0.163523
    outer loop
      vertex 23.2348 -84.7258 60
      vertex 16.5435 -92.1572 0
      vertex 30 -89.641 60
    endloop
  endfacet
endsolid OpenSCAD_Model
